<svg xmlns="http://www.w3.org/2000/svg" version="1.1" width="100%" height="100%" viewBox="0 0 3000 3000" preserveAspectRatio="xMidYMid meet" xmlns:xlink="http://www.w3.org/1999/xlink"><defs><clipPath id="__lottie_element_63372"><rect width="3000" height="3000" x="0" y="0"></rect></clipPath><g id="__lottie_element_63469"><g transform="matrix(0.8100000023841858,0,0,0.8100000023841858,1739.1240234375,1463.823974609375)" opacity="1" style="display: block;"><g opacity="1" transform="matrix(1,0,0,1,-1036.18896484375,-1106.18896484375)"><path stroke-linecap="butt" stroke-linejoin="miter" fill-opacity="0" stroke-miterlimit="4" stroke="rgb(255,175,24)" stroke-opacity="1" stroke-width="52" d=" M-81.70999908447266,26.263999938964844 C-84.37300109863281,17.985000610351562 -85.81099700927734,9.159000396728516 -85.81099700927734,0 C-85.81099700927734,-47.35908889770508 -47.35908889770508,-85.81099700927734 0,-85.81099700927734"></path></g></g></g><mask id="__lottie_element_63469_1" mask-type="alpha"><use xlink:href="#__lottie_element_63469"></use></mask></defs><g clip-path="url(#__lottie_element_63372)"><g transform="matrix(1,0,0,1,0,0)" opacity="1" style="display: block;"><g opacity="1" transform="matrix(1,0,0,1,1510.4000244140625,738.875)"><path fill="rgb(125,163,251)" fill-opacity="1" d=" M-623.0599975585938,-46.94499969482422 C-623.0599975585938,-46.94499969482422 623.0599975585938,-46.94499969482422 623.0599975585938,-46.94499969482422 C623.0599975585938,-46.94499969482422 623.0599975585938,46.94499969482422 623.0599975585938,46.94499969482422 C623.0599975585938,46.94499969482422 -623.0599975585938,46.94499969482422 -623.0599975585938,46.94499969482422 C-623.0599975585938,46.94499969482422 -623.0599975585938,-46.94499969482422 -623.0599975585938,-46.94499969482422z"></path></g><g opacity="1" transform="matrix(1,0,0,1,1481.5,656.3798828125)"><path fill="rgb(255,159,51)" fill-opacity="1" d=" M-573.6599731445312,-9.157999992370605 C-573.6599731445312,-9.157999992370605 573.6599731445312,-9.157999992370605 573.6599731445312,-9.157999992370605 C573.6599731445312,-9.157999992370605 573.6599731445312,9.157999992370605 573.6599731445312,9.157999992370605 C573.6599731445312,9.157999992370605 -573.6599731445312,9.157999992370605 -573.6599731445312,9.157999992370605 C-573.6599731445312,9.157999992370605 -573.6599731445312,-9.157999992370605 -573.6599731445312,-9.157999992370605z"></path></g><g opacity="1" transform="matrix(1,0,0,1,1481.5,656.3798828125)"><path fill="rgb(149,120,240)" fill-opacity="1" d=" M-503.75897216796875,-291.2498779296875 C-503.75897216796875,-291.2498779296875 503.75897216796875,-291.2498779296875 503.75897216796875,-291.2498779296875 C503.75897216796875,-291.2498779296875 503.75897216796875,291.2498779296875 503.75897216796875,291.2498779296875 C503.75897216796875,291.2498779296875 -503.75897216796875,291.2498779296875 -503.75897216796875,291.2498779296875 C-503.75897216796875,291.2498779296875 -503.75897216796875,-291.2498779296875 -503.75897216796875,-291.2498779296875z"></path></g><g opacity="1" transform="matrix(1,0,0,1,1186.9990234375,598.625)"><path fill="rgb(213,72,72)" fill-opacity="1" d=" M-513.9599609375,149.1110076904297 C-513.9599609375,149.1110076904297 513.9599609375,149.1110076904297 513.9599609375,149.1110076904297 C513.9599609375,149.1110076904297 513.9599609375,-149.1110076904297 513.9599609375,-149.1110076904297 C513.9599609375,-149.1110076904297 -513.9599609375,-149.1110076904297 -513.9599609375,-149.1110076904297 C-513.9599609375,-149.1110076904297 -513.9599609375,149.1110076904297 -513.9599609375,149.1110076904297z"></path></g><g opacity="1" transform="matrix(1,0,0,1,1186.9990234375,598.625)"><path fill="rgb(66,244,195)" fill-opacity="1" d=" M-310.0010681152344,-148.89088439941406 C-310.0010681152344,-148.89088439941406 310.0010681152344,-148.89088439941406 310.0010681152344,-148.89088439941406 C310.0010681152344,-148.89088439941406 310.0010681152344,148.89088439941406 310.0010681152344,148.89088439941406 C310.0010681152344,148.89088439941406 -310.0010681152344,148.89088439941406 -310.0010681152344,148.89088439941406 C-310.0010681152344,148.89088439941406 -310.0010681152344,-148.89088439941406 -310.0010681152344,-148.89088439941406z"></path></g><g opacity="1" transform="matrix(1,0,0,1,1324.453125,546.531005859375)"><path fill="rgb(238,46,123)" fill-opacity="1" d=" M-74.58000183105469,-44.73999786376953 C-74.58000183105469,-44.73999786376953 74.58000183105469,-44.73999786376953 74.58000183105469,-44.73999786376953 C74.58000183105469,-44.73999786376953 74.58000183105469,44.73999786376953 74.58000183105469,44.73999786376953 C74.58000183105469,44.73999786376953 -74.58000183105469,44.73999786376953 -74.58000183105469,44.73999786376953 C-74.58000183105469,44.73999786376953 -74.58000183105469,-44.73999786376953 -74.58000183105469,-44.73999786376953z"></path></g><g opacity="1" transform="matrix(1,0,0,1,1360.875,518.375)"><path fill="rgb(73,105,240)" fill-opacity="1" d=" M-59.17000198364258,-13.469999313354492 C-59.17000198364258,-13.469999313354492 59.17000198364258,-13.469999313354492 59.17000198364258,-13.469999313354492 C59.17000198364258,-13.469999313354492 59.17000198364258,13.469999313354492 59.17000198364258,13.469999313354492 C59.17000198364258,13.469999313354492 -59.17000198364258,13.469999313354492 -59.17000198364258,13.469999313354492 C-59.17000198364258,13.469999313354492 -59.17000198364258,-13.469999313354492 -59.17000198364258,-13.469999313354492z"></path></g><g opacity="1" transform="matrix(1,0,0,1,1346.5,498.375)"><path fill="rgb(246,57,208)" fill-opacity="1" d=" M-169.84100341796875,-3.8000001907348633 C-169.84100341796875,-3.8000001907348633 169.84100341796875,-3.8000001907348633 169.84100341796875,-3.8000001907348633 C169.84100341796875,-3.8000001907348633 169.84100341796875,3.8000001907348633 169.84100341796875,3.8000001907348633 C169.84100341796875,3.8000001907348633 -169.84100341796875,3.8000001907348633 -169.84100341796875,3.8000001907348633 C-169.84100341796875,3.8000001907348633 -169.84100341796875,-3.8000001907348633 -169.84100341796875,-3.8000001907348633z"></path></g><g opacity="1" transform="matrix(1,0,0,1,1262.75,507.5)"><path fill="rgb(94,244,249)" fill-opacity="1" d=" M-102.4229965209961,-8.26099967956543 C-102.4229965209961,-8.26099967956543 102.4229965209961,-8.26099967956543 102.4229965209961,-8.26099967956543 C102.4229965209961,-8.26099967956543 102.4229965209961,8.26099967956543 102.4229965209961,8.26099967956543 C102.4229965209961,8.26099967956543 -102.4229965209961,8.26099967956543 -102.4229965209961,8.26099967956543 C-102.4229965209961,8.26099967956543 -102.4229965209961,-8.26099967956543 -102.4229965209961,-8.26099967956543z"></path></g><g opacity="1" transform="matrix(1,0,0,1,1285.75,500.125)"><path fill="rgb(139,237,59)" fill-opacity="1" d=" M-74.8499984741211,-0.004999999888241291 C-74.8499984741211,-0.004999999888241291 74.8499984741211,-0.004999999888241291 74.8499984741211,-0.004999999888241291 C74.8499984741211,-0.004999999888241291 74.8499984741211,0.004999999888241291 74.8499984741211,0.004999999888241291 C74.8499984741211,0.004999999888241291 -74.8499984741211,0.004999999888241291 -74.8499984741211,0.004999999888241291 C-74.8499984741211,0.004999999888241291 -74.8499984741211,-0.004999999888241291 -74.8499984741211,-0.004999999888241291z"></path></g><g opacity="1" transform="matrix(1,0,0,1,1354.8740234375,493.98095703125)"><path fill="rgb(249,107,149)" fill-opacity="1" d=" M-85.34000396728516,-8.834999084472656 C-85.34000396728516,-8.834999084472656 85.34000396728516,-8.834999084472656 85.34000396728516,-8.834999084472656 C85.34000396728516,-8.834999084472656 85.34000396728516,8.834999084472656 85.34000396728516,8.834999084472656 C85.34000396728516,8.834999084472656 -85.34000396728516,8.834999084472656 -85.34000396728516,8.834999084472656 C-85.34000396728516,8.834999084472656 -85.34000396728516,-8.834999084472656 -85.34000396728516,-8.834999084472656z"></path></g><g opacity="1" transform="matrix(1,0,0,1,1354.8740234375,493.98095703125)"><path fill="rgb(185,198,229)" fill-opacity="1" d=" M-64.54999542236328,-10.100000381469727 C-64.54999542236328,-10.100000381469727 64.54999542236328,-10.100000381469727 64.54999542236328,-10.100000381469727 C64.54999542236328,-10.100000381469727 64.54999542236328,10.100000381469727 64.54999542236328,10.100000381469727 C64.54999542236328,10.100000381469727 -64.54999542236328,10.100000381469727 -64.54999542236328,10.100000381469727 C-64.54999542236328,10.100000381469727 -64.54999542236328,-10.100000381469727 -64.54999542236328,-10.100000381469727z"></path></g></g></g></g></g></svg>